<?xml version="1.0" standalone="no"?>
<!DOCTYPE svg PUBLIC "-//W3C//DTD SVG 20010904//EN"
 "http://www.w3.org/TR/2001/REC-SVG-20010904/DTD/svg10.dtd">
<svg version="1.0" xmlns="http://www.w3.org/2000/svg"
 width="1800.000000pt" height="981.000000pt" viewBox="0 0 1800.000000 981.000000"
 preserveAspectRatio="xMidYMid meet">
<g transform="translate(0.000000,981.000000) scale(0.100000,-0.100000)"
fill="#000000" stroke="none">
<path d="M8785 9019 c-90 -13 -149 -32 -182 -56 l-33 -24 -25 -54 c-25 -57
-50 -79 -100 -91 -69 -17 -193 -94 -282 -176 -28 -26 -56 -48 -61 -48 -5 0
-26 -24 -48 -54 -43 -61 -71 -80 -126 -90 -49 -9 -131 -51 -185 -94 l-43 -33
0 -19 c0 -10 -4 -21 -9 -24 -17 -11 -78 -153 -110 -256 -18 -58 -39 -123 -47
-145 -17 -48 -18 -117 -3 -132 l11 -11 -13 -23 -12 -24 -1 -195 -1 -195 14
-25 c8 -14 18 -41 22 -60 4 -19 17 -60 29 -90 12 -30 25 -68 29 -85 7 -28 34
-81 100 -200 15 -27 34 -50 42 -50 l14 0 0 70 1 70 19 52 19 52 -26 63 c-15
35 -34 88 -44 118 -9 30 -19 60 -23 65 -5 9 -12 27 -56 145 -9 25 -25 63 -36
86 -10 22 -19 47 -19 56 0 9 -11 36 -25 59 -49 87 -28 116 32 43 20 -26 54
-57 74 -70 l36 -22 7 -109 c7 -108 20 -170 48 -228 9 -16 30 -61 49 -100 18
-38 41 -81 51 -95 l18 -25 -16 -120 c-17 -128 -14 -193 9 -210 l14 -10 309 0
309 0 3 17 3 17 -33 38 c-62 72 -84 135 -58 166 45 54 93 125 210 315 l52 82
295 -2 296 -3 134 -195 c73 -107 138 -205 145 -218 l12 -23 -25 -47 c-13 -26
-31 -58 -41 -72 -9 -14 -19 -35 -23 -48 l-7 -23 308 5 309 4 13 49 13 48 -6
55 c-3 30 -8 83 -12 117 l-5 62 26 31 c25 30 66 112 66 134 1 6 9 29 20 51 11
22 19 49 20 61 0 11 5 25 10 30 6 6 15 56 21 110 5 54 11 109 14 121 l5 21 59
40 c83 55 91 29 15 -44 l-32 -32 -7 -88 c-4 -48 -14 -104 -22 -124 -8 -19 -18
-44 -22 -55 -24 -58 -42 -137 -43 -191 l-2 -62 14 -17 c8 -10 13 -28 12 -41
-4 -28 25 -87 38 -79 6 4 10 13 10 21 0 8 4 14 9 14 13 0 61 85 61 107 0 11 4
23 9 29 9 10 40 100 52 157 5 20 13 56 19 80 5 23 10 152 10 286 l1 245 -15
45 c-8 26 -23 75 -35 111 -31 100 -42 131 -67 187 -13 29 -29 62 -34 75 -27
61 -63 113 -104 149 l-44 39 -7 29 -6 29 -62 70 c-130 146 -236 227 -425 324
l-114 58 -39 0 c-47 0 -49 -9 -7 -35 18 -11 42 -27 54 -35 103 -70 134 -90
169 -106 l40 -18 122 -125 c118 -121 140 -151 108 -151 -14 0 -65 48 -65 62 0
12 -82 88 -130 120 -25 17 -58 43 -75 59 -38 35 -131 84 -185 99 -49 13 -90
53 -90 87 l0 24 -15 5 c-8 4 -15 12 -15 19 0 74 -392 132 -635 94z m60 -227
c28 -9 57 -22 65 -27 8 -6 26 -15 40 -22 l25 -11 -26 -1 c-14 -1 -29 2 -33 6
-7 8 -52 20 -158 46 -27 6 -48 15 -48 19 0 14 85 8 135 -10z m-240 -32 c11 -4
52 -12 90 -18 108 -15 224 -53 250 -82 l16 -18 -12 -88 -12 -89 5 -119 5 -120
-36 -33 c-20 -18 -41 -33 -47 -33 -6 0 -17 -6 -23 -13 -6 -8 -30 -19 -53 -26
-42 -13 -87 -47 -88 -66 0 -10 -67 -61 -105 -80 -11 -6 -26 -22 -32 -37 -7
-14 -27 -31 -43 -38 l-31 -13 -18 17 c-39 35 -315 106 -415 106 l-23 0 -7 31
c-10 49 -7 210 5 295 l11 77 24 33 c14 17 57 59 97 92 40 33 84 72 98 85 14
13 35 28 47 31 12 4 22 11 22 16 0 5 10 12 23 16 12 4 39 18 59 30 21 13 44
24 52 24 8 0 21 6 28 13 26 27 61 29 113 7z m875 -5 c8 -7 34 -21 57 -30 23
-9 44 -23 47 -31 3 -8 14 -14 25 -14 11 0 24 -6 28 -13 4 -7 21 -20 36 -30 15
-10 32 -28 36 -40 5 -12 29 -41 54 -64 l46 -43 22 0 22 0 36 -38 c46 -48 61
-93 68 -212 l6 -95 -12 -84 -11 -85 37 -30 c70 -57 154 -179 192 -276 8 -19
23 -50 34 -68 l20 -34 -7 -78 c-3 -43 -13 -91 -21 -107 -8 -15 -15 -36 -15
-46 0 -11 -6 -33 -14 -50 -8 -18 -22 -59 -32 -92 -9 -33 -20 -65 -25 -70 -4
-6 -16 -34 -26 -64 l-18 -53 -25 -13 c-113 -58 -223 -92 -350 -106 l-85 -10
-21 27 c-12 14 -31 45 -43 68 -24 46 -34 61 -73 124 -16 24 -28 45 -28 48 0 3
-6 12 -12 20 -7 8 -18 20 -23 27 -6 7 -28 38 -49 70 l-39 57 27 78 c15 42 31
91 36 107 14 49 62 187 76 223 8 18 14 44 14 58 0 14 4 33 9 43 l10 17 63 18
c35 10 81 24 103 32 23 8 53 14 68 14 14 0 44 6 64 14 21 8 55 17 75 21 l38 6
10 18 c14 27 4 31 -78 31 l-75 0 -93 -31 c-52 -17 -110 -42 -129 -55 -53 -36
-57 -34 -247 116 -46 36 -113 80 -149 97 -69 34 -119 73 -120 95 0 7 0 110 0
228 l1 214 10 10 c16 16 141 49 250 67 36 6 83 17 105 24 42 14 70 11 95 -10z
m-1511 -588 l1 -139 -12 4 -13 5 -3 119 c-2 65 0 135 4 154 l6 35 8 -20 c5
-11 9 -82 9 -158z m1038 -23 c2 -7 -9 -17 -24 -23 -33 -14 -63 -31 -83 -49
-47 -40 -266 -192 -278 -192 -3 0 -14 -7 -24 -17 l-18 -16 0 15 c0 28 243 228
277 228 4 0 14 6 22 14 49 43 120 65 128 40z m-923 -193 c17 -5 56 -16 86 -25
30 -9 75 -21 100 -25 25 -5 70 -17 100 -26 30 -9 67 -19 82 -22 44 -8 46 -13
83 -163 7 -30 23 -80 35 -110 12 -30 24 -64 27 -75 3 -11 11 -34 19 -52 8 -17
14 -40 14 -51 0 -10 5 -34 12 -52 l11 -33 -14 -11 c-8 -6 -53 -60 -100 -121
l-86 -110 -36 -90 -36 -90 -73 2 -73 2 -100 32 c-55 18 -109 38 -120 46 -11 7
-29 13 -40 13 -33 1 -54 24 -67 76 -7 27 -28 72 -46 101 l-32 50 -20 103 c-11
56 -24 107 -29 114 -5 6 -12 39 -16 73 l-7 62 15 28 c7 15 22 46 32 68 11 22
32 59 47 83 15 24 28 46 28 50 0 4 10 18 23 32 12 14 42 49 65 78 l44 52 21 0
c11 0 34 -4 51 -9z m962 -116 c4 -8 17 -15 30 -15 l23 0 16 -30 c8 -16 15 -36
15 -45 0 -18 -16 -20 -23 -2 l-4 12 -9 -8 -8 -8 12 -8 c17 -11 6 -36 -24 -51
-13 -7 -24 -17 -24 -22 0 -4 -9 -17 -20 -28 l-20 -20 -33 0 c-37 0 -58 15 -50
36 l5 14 -21 0 -21 0 -12 28 c-7 15 -18 34 -25 43 l-13 16 25 11 c24 11 29 25
26 64 l-2 17 43 4 c24 2 58 4 76 5 l33 2 5 -15z"/>
<path d="M9969 7543 c-13 -26 -39 -73 -59 -103 -46 -68 -70 -118 -70 -140 l0
-18 -28 -11 -28 -12 -18 -34 c-10 -18 -25 -36 -32 -39 -17 -6 -19 -36 -3 -36
6 0 13 9 16 20 3 11 11 20 17 20 7 0 27 16 44 36 l32 35 21 -6 20 -7 6 21 5
21 23 0 c12 0 39 7 59 15 l35 15 -5 28 c-3 15 2 49 10 77 l15 50 -9 9 c-6 6
-10 32 -10 58 0 61 -12 61 -41 1z"/>
<path d="M8310 8851 c0 -5 -12 -16 -27 -24 -131 -67 -243 -143 -243 -165 0 -7
-11 -23 -25 -36 l-25 -24 25 -4 25 -5 0 13 c0 14 60 64 76 64 6 0 35 21 65 48
29 26 71 56 93 67 21 11 40 26 43 33 3 6 11 12 18 12 7 0 18 7 25 15 l12 15
-31 0 c-17 0 -31 -4 -31 -9z"/>
<path d="M11117 7763 c-4 -3 -7 -16 -7 -28 0 -26 -21 -46 -64 -60 l-31 -10 0
-15 0 -15 43 -20 43 -20 5 -25 c7 -32 19 -55 29 -55 8 0 12 6 35 57 l12 26 44
17 44 17 0 18 0 18 -37 9 -38 9 -23 42 c-22 39 -40 51 -55 35z"/>
<path d="M10880 7405 c-6 -14 -10 -37 -10 -50 0 -70 -60 -146 -129 -165 -79
-21 -98 -53 -38 -64 19 -3 53 -15 76 -27 l42 -20 20 -32 c21 -35 25 -47 34
-119 l6 -48 13 0 c15 0 46 74 46 109 0 13 9 38 20 56 l20 33 43 20 c23 10 59
22 79 26 73 13 58 44 -34 70 -31 9 -70 28 -87 41 l-30 26 -6 32 c-23 111 -49
155 -65 112z"/>
<path d="M7092 7187 c-7 -8 -15 -28 -18 -45 -7 -36 -18 -47 -82 -82 -56 -32
-57 -42 -7 -55 45 -11 85 -41 85 -64 0 -23 39 -83 49 -77 5 3 14 26 20 50 l11
44 25 21 c14 11 39 23 55 26 42 9 37 27 -16 55 -48 26 -63 44 -79 99 -11 39
-27 48 -43 28z"/>
<path d="M9240 6894 l0 -11 -105 -6 c-58 -4 -138 -12 -177 -18 l-73 -11 -150
6 -150 6 -14 -9 -14 -9 7 -11 7 -11 -25 -45 -25 -45 14 -27 c22 -41 29 -43
235 -43 268 0 442 16 630 58 l25 5 -65 14 c-36 7 -80 14 -97 14 -32 0 -43 11
-24 23 5 4 12 29 16 57 l7 51 -11 11 -11 11 0 -10z"/>
<path d="M10335 6649 c-49 -5 -116 -18 -148 -29 l-59 -21 -132 -6 c-72 -3
-136 -10 -143 -15 l-11 -9 8 -29 c5 -16 10 -51 11 -77 l3 -48 -94 3 c-52 2
-140 8 -195 13 l-100 11 -790 -3 -790 -4 -13 9 -14 8 7 59 7 60 -12 14 c-7 8
-26 15 -42 15 -16 0 -47 9 -69 20 l-40 21 -112 6 -112 6 -32 -27 -31 -26 -12
-49 -11 -48 14 -34 c18 -42 63 -84 99 -93 l27 -6 3 -43 3 -42 68 -3 67 -3 0
-42 c0 -23 -4 -48 -9 -55 l-8 -14 -6 15 -6 15 -33 -3 -33 -2 -6 -24 c-9 -33
-1 -374 11 -484 6 -49 14 -130 19 -180 8 -93 43 -282 67 -370 7 -27 21 -81 29
-120 19 -82 42 -158 60 -200 8 -16 23 -59 36 -95 36 -106 44 -127 55 -141 6
-8 19 -34 29 -59 11 -25 30 -63 44 -85 14 -22 35 -58 47 -80 40 -77 49 -90 99
-155 128 -168 303 -328 436 -398 l54 -29 3 -20 c2 -10 -9 -36 -23 -56 l-25
-38 0 -40 c0 -53 13 -75 58 -98 20 -10 48 -31 61 -45 l24 -25 -6 -78 c-4 -43
-14 -100 -22 -127 -8 -27 -15 -60 -15 -73 0 -79 -180 -360 -289 -451 -31 -26
-58 -50 -61 -54 -3 -4 -33 -20 -67 -37 l-62 -31 -6 -19 -6 -19 -30 -6 c-48 -9
-99 -37 -111 -60 l-12 -21 2 -52 3 -51 -10 -7 c-6 -3 -11 -22 -11 -41 l0 -34
-86 0 -86 0 -33 -33 -33 -33 3 -112 3 -112 -9 -6 c-6 -3 -51 0 -101 6 l-91 12
-25 -25 -25 -25 2 -553 c1 -305 6 -557 10 -562 4 -4 77 -2 162 4 l154 12 765
-9 c834 -9 944 -9 1435 -4 l330 4 44 -15 c51 -17 62 -33 29 -44 -13 -4 -169
-11 -348 -14 l-325 -6 -87 9 -87 9 -258 -10 c-142 -5 -562 -10 -933 -11 l-675
-2 -100 10 -100 10 -49 25 c-27 14 -64 25 -83 25 l-33 0 -27 -41 -27 -41 0
-99 -1 -100 1705 0 1705 1 0 101 1 102 -28 38 -28 39 -26 6 c-15 4 -47 2 -71
-3 l-45 -11 -5 14 c-3 8 -2 261 1 563 l6 548 -22 28 -21 28 -103 -7 -102 -7
-7 32 c-4 17 -4 68 0 113 l6 81 -31 32 -32 32 -31 6 c-18 4 -52 1 -77 -4 -55
-13 -333 -41 -415 -41 -33 0 -71 -3 -84 -7 l-24 -6 7 -82 7 -83 -13 -3 c-7 -2
-331 -4 -720 -4 l-706 0 -9 8 c-4 5 -8 45 -8 90 l0 81 -54 10 c-30 6 -56 16
-58 23 l-4 11 53 6 c29 3 334 8 678 12 344 3 684 9 755 13 l130 7 155 -14 c85
-8 173 -15 195 -16 l40 -1 -1 28 c0 15 -1 58 -2 96 l-2 70 -22 26 -23 26 -53
6 -53 6 -16 24 c-9 13 -29 31 -45 39 -132 68 -288 233 -363 384 -15 30 -30 57
-34 60 -18 15 -66 216 -76 323 l-7 69 23 24 c13 14 42 33 65 43 l41 19 7 32
c10 55 7 79 -19 128 -33 63 -32 67 23 98 115 66 154 95 261 199 98 95 241 261
241 280 0 5 16 32 98 160 6 11 17 30 22 43 5 13 27 60 48 105 21 45 47 105 56
132 10 28 22 58 27 67 14 28 46 128 64 203 9 39 23 93 30 120 8 28 21 86 30
130 8 44 20 100 26 125 6 25 14 96 19 157 5 62 11 117 15 123 7 11 31 344 40
560 3 80 8 153 11 163 l5 17 19 0 c27 0 107 79 115 113 l8 29 -11 37 c-7 20
-24 49 -39 63 l-28 26 -40 5 c-22 3 -80 1 -130 -4z m-1751 -308 c13 -20 -60
-27 -139 -14 l-39 6 19 8 c28 11 153 11 159 0z m1181 -421 c0 -202 3 -372 8
-376 4 -4 7 -27 7 -51 l0 -44 10 6 c6 3 10 21 10 38 l0 32 21 14 22 13 8 -14
c12 -19 11 -42 -3 -56 l-12 -12 11 -19 12 -19 -14 -18 -14 -19 -20 13 c-31 18
-39 15 -46 -20 -4 -18 -17 -41 -28 -50 l-22 -17 -2 -38 c-7 -132 -12 -175 -21
-186 -5 -6 -12 -34 -15 -62 -5 -46 -16 -110 -47 -260 -7 -33 -18 -74 -26 -92
-8 -17 -14 -40 -14 -51 0 -12 -4 -23 -9 -26 -4 -3 -11 -19 -14 -35 -3 -16 -20
-58 -37 -94 -16 -35 -30 -67 -30 -70 0 -3 -13 -35 -30 -70 -16 -36 -30 -68
-30 -72 0 -9 -106 -166 -178 -263 l-54 -74 -67 -42 c-36 -24 -78 -46 -92 -49
l-26 -7 -57 63 c-31 34 -61 68 -67 75 l-11 14 -11 -11 c-17 -17 -34 -13 -40 9
-8 31 -32 24 -50 -15 -9 -19 -22 -35 -29 -35 -16 0 -138 131 -138 148 0 7 -7
15 -15 18 -8 4 -15 13 -15 22 0 8 -8 32 -17 52 l-18 37 -40 22 c-49 26 -51 26
-58 -1 l-6 -22 16 -33 16 -34 -9 -9 -9 -9 -46 42 c-43 40 -127 144 -142 177
-4 8 -23 42 -42 75 -19 33 -40 71 -46 85 -35 72 -58 129 -64 160 -4 19 -11 41
-15 50 -4 8 -13 31 -20 50 -6 19 -21 58 -32 85 -11 28 -24 77 -29 110 -5 33
-15 94 -23 135 -44 236 -63 379 -76 590 -15 239 -29 594 -23 603 2 4 97 7 209
6 113 -1 207 1 209 3 2 2 327 2 722 0 l718 -3 0 -369z m455 328 c0 -13 -4 -29
-9 -37 l-9 -14 -26 19 c-40 30 -33 54 16 54 l28 0 0 -22z m-2530 -244 c0 -46
-4 -84 -9 -84 -10 0 -23 127 -15 157 12 46 24 10 24 -73z m2565 -274 c-4 -61
-17 -130 -26 -130 -9 0 -2 214 8 245 l7 20 6 -50 c4 -27 6 -66 5 -85z m-147
-462 c11 -24 23 -55 26 -70 l6 -26 -25 -126 c-14 -69 -25 -128 -25 -131 0 -3
-11 -5 -24 -5 -34 0 -56 -25 -56 -63 0 -18 -4 -38 -8 -45 l-8 -12 -19 20 -18
19 7 43 c4 23 11 47 16 53 l10 12 -9 74 -10 74 10 10 c5 5 9 19 9 32 l0 23 19
0 19 0 7 53 c7 50 32 107 46 107 4 0 16 -19 27 -42z m-218 -414 c14 -36 12
-54 -5 -54 -19 0 -40 43 -32 64 9 24 26 19 37 -10z m-725 -1155 c4 -5 4 -37 0
-70 l-7 -60 -27 -12 -26 -11 -185 1 -185 1 -29 11 -29 12 7 56 c4 31 12 63 18
70 l10 13 224 0 223 0 6 -11z m-228 -355 l17 -27 3 -150 2 -150 10 -10 10 -10
6 14 c3 8 7 59 8 114 l3 100 34 0 35 0 -3 -34 -2 -34 16 -18 c9 -10 19 -40 22
-66 2 -26 11 -57 18 -68 8 -11 14 -29 14 -40 0 -11 9 -38 20 -60 11 -22 20
-45 20 -52 0 -7 19 -43 41 -80 39 -64 73 -142 66 -150 -4 -3 -673 -7 -759 -4
-50 1 -48 9 20 91 l59 69 46 93 c73 150 84 177 122 308 20 68 42 131 50 140 8
9 15 22 15 28 0 12 21 19 62 21 l28 1 17 -26z m111 -46 c7 -7 12 -18 12 -25
l0 -13 -29 0 c-35 0 -48 15 -31 35 15 18 32 19 48 3z m585 -744 c62 -9 119
-20 126 -24 l15 -8 -65 -6 c-224 -20 -339 -26 -489 -26 l-169 0 -28 -11 -28
-11 43 -15 c41 -14 51 -26 32 -38 -5 -3 -7 -12 -4 -19 l5 -14 -38 -7 c-20 -4
-190 -6 -377 -6 l-340 1 -9 9 c-5 5 -9 32 -9 60 l1 51 -22 15 c-12 8 -31 15
-42 16 l-20 1 45 15 45 15 355 7 c195 4 469 8 608 9 l253 2 112 -16z m-199
-140 l7 -27 -9 -9 -10 -10 -31 7 -31 7 28 28 c34 36 38 36 46 4z m746 -326 c0
-11 -62 -25 -87 -20 l-23 4 0 20 c0 11 9 33 21 49 l21 30 34 -38 c18 -21 33
-41 34 -45z m-176 -90 c27 -7 51 -18 53 -24 l4 -12 -38 -7 c-20 -3 -533 -8
-1140 -10 l-1103 -2 -17 12 c-52 39 25 43 732 46 347 1 695 5 775 9 80 4 267
6 415 5 l270 -3 49 -14z m-839 -183 l1020 0 0 -390 0 -389 -235 3 c-129 1
-336 6 -460 11 -250 11 -1312 11 -1543 1 -82 -3 -151 -3 -153 1 -7 11 -17 716
-10 743 l6 24 43 4 c23 3 103 2 177 -1 74 -4 594 -7 1155 -7z"/>
<path d="M8190 5993 c0 -76 4 -144 9 -151 l8 -14 6 39 c3 21 9 66 13 100 l6
61 -12 51 c-7 28 -16 51 -21 51 l-9 0 0 -137z"/>
<path d="M9615 5888 c-22 -6 -50 -12 -62 -14 -30 -6 -29 -30 1 -38 l24 -6 -6
-47 c-5 -52 -16 -73 -38 -73 -8 0 -22 -4 -32 -9 -9 -6 -29 -12 -45 -16 -15 -3
-45 -24 -66 -46 l-39 -40 -7 -38 c-9 -55 2 -101 35 -141 l28 -34 93 -1 c120
-2 201 7 206 21 l4 11 -31 6 -30 7 0 202 0 203 14 27 c13 24 12 40 -3 37 -3
-1 -24 -6 -46 -11z m-52 -220 l14 -23 -10 -107 -11 -108 -17 0 c-31 0 -64 20
-87 54 l-22 32 0 48 0 47 38 39 37 40 22 0 23 0 13 -22z"/>
<path d="M8452 5817 c-77 -32 -192 -142 -192 -184 0 -4 -6 -14 -14 -22 -7 -9
-16 -28 -20 -43 l-6 -28 10 0 c5 0 10 4 10 10 l0 10 29 -6 28 -6 39 50 c21 28
55 60 75 71 l37 21 57 0 58 0 31 -19 32 -20 18 -51 19 -52 -7 -51 c-17 -142
-113 -294 -313 -497 -95 -95 -126 -140 -109 -157 3 -3 142 -5 308 -4 l303 2
13 16 c6 9 12 33 12 54 0 20 7 50 15 65 8 16 15 36 15 45 0 8 6 24 14 35 l14
19 -10 12 c-18 22 -45 14 -73 -19 -14 -18 -33 -41 -41 -50 l-14 -18 -154 0
-155 0 -6 10 c-3 5 32 44 77 87 162 153 225 228 272 328 l19 40 1 85 1 85 -18
46 c-37 97 -122 150 -247 155 l-75 3 -53 -22z"/>
<path d="M9046 5711 c-3 -4 -23 -11 -45 -15 -50 -8 -56 -17 -31 -46 l20 -23 0
-94 0 -95 -17 -29 c-22 -37 -17 -40 51 -29 69 11 71 12 57 38 l-11 20 7 94 6
93 16 12 c9 7 26 13 38 13 l22 0 16 -30 15 -29 0 -79 0 -80 -15 -12 c-8 -7
-15 -21 -15 -32 l0 -20 31 6 c17 3 51 6 75 6 l44 0 0 13 c0 7 -9 18 -19 24
l-19 12 -3 123 -4 123 -22 23 -23 22 -34 0 -34 0 -30 -30 c-32 -31 -42 -30
-42 7 l0 23 -14 0 c-8 0 -17 -4 -20 -9z"/>
<path d="M7856 1698 c2 -29 6 -88 10 -130 3 -43 9 -78 13 -78 15 0 51 47 51
66 0 11 7 29 15 40 8 10 15 31 15 47 l0 27 16 0 16 0 -6 24 -6 24 16 6 c9 3
25 7 37 7 l22 1 -40 9 c-22 4 -68 8 -102 8 l-62 1 5 -52z"/>
<path d="M7746 3891 c-9 -16 -16 -36 -16 -44 0 -8 -9 -26 -21 -41 l-20 -26
-41 -6 c-64 -11 -61 -55 5 -70 36 -8 54 -28 82 -98 11 -27 26 -51 32 -54 l13
-4 10 27 c5 14 10 37 10 49 0 13 9 35 20 49 l21 26 34 7 c36 6 71 36 61 52 -3
5 -27 12 -53 16 l-48 6 -15 23 c-8 12 -19 42 -25 66 -12 54 -29 62 -49 22z"/>
<path d="M10077 3603 c-3 -10 -8 -38 -11 -63 -4 -25 -15 -60 -26 -78 l-20 -33
-46 -19 c-25 -11 -55 -20 -67 -20 -109 -1 -86 -35 53 -79 63 -20 93 -61 106
-139 3 -21 9 -45 13 -51 l8 -12 16 7 17 6 10 42 c26 102 53 139 110 151 126
24 161 74 52 75 -12 0 -30 4 -40 8 -9 5 -30 15 -47 23 l-30 15 -17 34 c-9 19
-20 55 -24 80 -10 65 -45 97 -57 53z"/>
<path d="M9058 2224 c-4 -4 3 -17 15 -30 l22 -24 45 1 c40 0 74 5 173 26 27 5
38 23 15 23 -7 0 -69 3 -138 6 -69 3 -128 2 -132 -2z"/>
<path d="M7005 704 c-11 -2 -36 -9 -55 -14 -19 -5 -76 -16 -125 -25 l-91 -17
-24 -18 -24 -18 11 -24 11 -24 58 -17 c231 -65 520 -83 452 -28 -7 6 -29 24
-49 41 -20 16 -41 30 -47 30 -6 0 -13 4 -17 10 -5 9 -2 18 24 68 7 13 11 25 9
27 -6 6 -114 13 -133 9z"/>
<path d="M10850 688 c0 -8 5 -19 10 -24 l11 -11 -7 -42 -7 -42 -24 -17 c-14
-9 -34 -26 -46 -37 l-22 -20 45 -8 45 -8 80 11 c192 27 324 61 351 91 l18 20
-25 24 -24 24 -115 22 c-63 13 -154 24 -202 27 l-88 3 0 -13z"/>
</g>
</svg>
