<?xml version="1.0" standalone="no"?>
<!DOCTYPE svg PUBLIC "-//W3C//DTD SVG 20010904//EN"
 "http://www.w3.org/TR/2001/REC-SVG-20010904/DTD/svg10.dtd">
<svg version="1.0" xmlns="http://www.w3.org/2000/svg"
 width="1800.000000pt" height="981.000000pt" viewBox="0 0 1800.000000 981.000000"
 preserveAspectRatio="xMidYMid meet">
<g transform="translate(0.000000,981.000000) scale(0.100000,-0.100000)"
fill="#000000" stroke="none">
<path d="M8785 9020 c-27 -5 -75 -14 -105 -21 l-55 -12 -28 -26 c-16 -14 -39
-49 -52 -78 -27 -58 -49 -76 -115 -93 -25 -7 -47 -15 -50 -19 -3 -3 -27 -17
-54 -31 -28 -14 -59 -33 -70 -42 -171 -139 -181 -149 -220 -206 -33 -48 -45
-56 -96 -67 -34 -6 -87 -26 -122 -45 -10 -6 -24 -10 -31 -10 -15 0 -87 -71
-87 -86 0 -6 -12 -33 -26 -60 -53 -101 -62 -122 -93 -224 -18 -58 -38 -118
-43 -135 -16 -44 -21 -121 -10 -141 l10 -17 -15 -36 -15 -36 4 -187 4 -187 14
-16 c7 -8 16 -32 20 -53 8 -39 24 -86 46 -140 8 -18 14 -41 14 -51 0 -10 11
-38 25 -62 13 -24 30 -55 35 -69 6 -13 14 -27 18 -30 4 -3 18 -22 32 -42 34
-51 37 -49 42 39 l5 76 27 20 27 19 -6 27 c-3 15 -19 54 -35 87 -17 32 -30 66
-30 75 0 8 -4 19 -9 25 -8 9 -33 85 -45 139 -4 17 -16 37 -26 45 l-20 15 -6
50 -7 50 -19 21 c-10 11 -20 37 -21 56 -2 19 -13 51 -25 72 -19 33 -30 76 -18
76 2 0 40 -35 84 -78 l79 -77 7 -102 c8 -114 20 -159 65 -254 17 -36 31 -69
31 -74 0 -4 14 -28 31 -53 17 -25 31 -55 32 -66 3 -38 -14 -221 -22 -241 l-9
-21 17 -34 16 -35 315 0 315 0 3 19 4 18 -34 37 c-78 85 -84 123 -28 201 42
58 89 132 174 270 l52 85 298 3 297 2 17 -31 c9 -17 37 -57 62 -89 38 -49 94
-132 135 -199 6 -9 25 -35 43 -58 39 -50 39 -64 1 -128 -48 -83 -63 -114 -56
-121 9 -9 310 -5 365 6 l46 8 94 -9 c113 -12 107 -15 122 73 l12 72 -11 49
c-6 27 -11 69 -11 94 l0 46 14 16 c18 21 76 131 76 145 1 6 9 29 20 51 11 22
19 49 20 61 0 11 4 24 10 30 5 5 15 59 21 119 l11 110 16 19 c22 24 98 76 111
76 22 0 10 -24 -34 -66 l-45 -42 0 -77 0 -77 -13 -26 c-8 -15 -21 -42 -30 -60
-9 -19 -17 -45 -17 -58 0 -14 -7 -38 -14 -53 l-15 -28 6 -24 c3 -13 12 -32 20
-41 l15 -17 -7 -20 -6 -21 14 0 15 0 6 -26 c4 -14 3 -31 -2 -37 -5 -7 -13 -30
-16 -51 l-8 -39 -24 -19 -24 -19 0 -35 c0 -46 13 -43 36 9 10 23 24 46 31 50
7 4 13 17 13 27 0 10 6 23 14 27 17 10 56 82 56 103 0 9 4 20 10 26 11 11 50
130 50 154 0 10 8 35 17 56 l16 39 -1 262 -1 262 -12 23 c-7 13 -16 41 -20 63
-12 67 -59 194 -112 305 l-51 105 -47 51 c-27 27 -52 60 -56 71 -22 59 -272
323 -305 323 -3 0 -36 20 -74 45 -37 25 -72 45 -78 45 -5 0 -17 6 -25 13 -50
42 -211 86 -211 57 0 -5 4 -10 9 -10 10 0 136 -83 156 -103 7 -8 39 -27 71
-43 l58 -29 71 -71 c38 -38 88 -91 110 -116 l40 -46 59 -28 c33 -16 62 -36 64
-44 l5 -15 -14 13 c-7 6 -20 12 -29 12 -60 0 -133 47 -146 95 -5 19 -33 43
-128 110 -24 17 -60 45 -82 63 -58 49 -62 52 -71 52 -4 1 -26 9 -48 20 -22 11
-48 19 -58 20 -45 0 -86 39 -87 81 l0 27 -41 41 c-23 23 -53 44 -68 46 -14 3
-48 13 -76 22 l-50 17 -190 2 c-104 1 -212 -1 -240 -6z m70 -229 c27 -10 51
-24 53 -30 l4 -11 -26 0 c-15 0 -42 6 -61 14 -19 8 -55 18 -80 21 -44 7 -53
14 -37 29 10 11 89 -1 147 -23z m-259 -26 c10 -8 34 -15 53 -15 41 0 203 -38
216 -51 5 -5 15 -9 21 -9 7 0 29 -10 48 -22 l35 -23 -4 -12 c-2 -7 -9 -52 -16
-100 l-12 -88 6 -107 6 -107 -77 -61 -77 -60 -21 0 c-12 0 -27 -7 -34 -15 -7
-8 -19 -15 -26 -15 -8 0 -14 -6 -14 -14 0 -16 -38 -49 -99 -86 l-41 -24 0 -18
0 -17 -30 -16 -31 -16 -27 16 c-76 44 -238 85 -391 100 -24 2 -46 6 -49 9 -11
12 -14 120 -7 253 l7 136 67 73 c36 39 74 75 84 79 9 3 37 26 62 51 25 24 49
44 54 44 5 0 16 6 23 14 8 7 50 31 94 52 43 21 81 41 84 45 17 21 70 24 96 4z
m874 -4 c0 -5 24 -19 53 -31 28 -12 59 -29 67 -37 8 -8 38 -29 65 -47 l50 -32
-3 -32 -2 -32 15 0 c8 0 30 -13 48 -30 l35 -30 28 0 29 -1 26 -22 c40 -34 56
-65 69 -141 l13 -69 -7 -143 -7 -143 41 -32 c40 -32 122 -145 147 -201 6 -15
19 -44 28 -65 9 -21 21 -45 26 -53 5 -8 14 -26 20 -40 l11 -25 -7 -75 c-3 -41
-10 -79 -15 -85 -5 -6 -13 -29 -19 -50 -5 -22 -19 -65 -30 -95 -12 -30 -21
-62 -21 -72 0 -9 -11 -38 -25 -64 -14 -26 -25 -56 -25 -66 0 -26 -44 -68 -71
-68 -11 0 -33 -6 -47 -14 -51 -26 -103 -46 -120 -46 -9 0 -30 -7 -45 -15 l-28
-15 -90 -2 -90 -3 -26 45 c-14 25 -48 85 -75 134 -27 48 -53 93 -59 100 -5 6
-32 42 -61 80 l-51 69 17 56 c10 31 24 71 32 89 8 18 14 39 14 47 0 7 6 26 14
42 16 31 46 128 46 148 0 7 7 26 15 41 8 16 15 38 15 49 0 11 6 30 14 41 l15
20 58 19 c129 40 148 45 175 45 16 0 41 6 56 14 15 7 44 16 64 20 84 15 44 45
-64 48 l-73 2 -64 -24 c-35 -12 -80 -33 -98 -46 -19 -13 -43 -26 -53 -29 l-19
-6 -43 27 c-24 14 -47 32 -53 38 -17 21 -185 146 -195 146 -6 0 -28 11 -50 25
-22 14 -43 25 -48 25 -4 0 -23 15 -41 33 l-32 34 -1 221 -2 221 13 15 c8 9 24
16 37 16 13 0 38 6 56 14 46 20 168 46 214 46 22 0 46 5 54 10 19 12 80 13 80
1z m-1501 -586 c-1 -77 -5 -153 -8 -170 l-8 -30 -8 59 c-10 79 -12 244 -2 280
l8 30 10 -15 c5 -7 8 -77 8 -154z m1021 -28 c0 -14 -52 -57 -69 -57 -6 0 -14
-6 -18 -14 -4 -7 -44 -38 -88 -67 -44 -29 -82 -56 -85 -59 -3 -3 -32 -23 -65
-45 -33 -22 -61 -43 -63 -47 -6 -13 -22 -9 -22 5 0 14 20 38 63 74 31 26 206
153 212 153 2 0 30 16 62 35 64 39 73 41 73 22z m-906 -198 c22 -5 64 -16 91
-24 28 -8 68 -18 90 -24 22 -5 65 -17 95 -26 30 -8 71 -20 90 -25 45 -12 54
-25 74 -117 19 -81 39 -146 62 -200 8 -17 14 -38 14 -46 0 -9 4 -18 9 -21 4
-3 16 -38 26 -78 l17 -72 -14 -10 c-71 -55 -214 -282 -252 -398 l-5 -18 -43 0
c-24 1 -61 5 -83 9 -22 5 -64 14 -94 20 -30 6 -81 25 -114 41 -33 17 -67 30
-76 30 -36 1 -75 70 -49 86 l10 6 -35 37 c-18 20 -44 53 -56 73 l-22 37 -10
86 c-5 48 -16 99 -24 115 -8 15 -17 56 -21 92 l-6 64 16 13 c9 7 16 18 16 23
0 12 33 79 69 142 31 54 157 196 173 196 6 0 29 -5 52 -11z m944 -95 c12 -4
22 -12 22 -19 0 -7 -10 -16 -22 -19 l-23 -6 23 -19 22 -19 0 -36 0 -36 13 -1
c6 -1 15 -1 20 0 25 4 -11 -37 -69 -77 l-32 -22 -30 6 c-17 4 -39 15 -48 25
-9 11 -23 19 -31 19 l-13 0 -2 28 c-1 15 -1 39 0 55 l2 27 -21 0 -21 0 4 13
c3 6 15 14 27 15 l23 4 5 18 5 18 31 5 c18 3 36 1 42 -4 16 -16 35 -10 35 11
0 22 3 23 38 14z"/>
<path d="M9965 7529 c-39 -67 -44 -74 -87 -141 -21 -32 -40 -69 -44 -83 -3
-14 -21 -37 -40 -51 -18 -14 -36 -33 -39 -42 -3 -10 -39 -42 -80 -72 -88 -66
-110 -113 -26 -57 19 12 43 27 55 34 11 6 48 42 82 78 l61 67 22 -14 22 -13
20 27 20 27 27 -5 27 -5 20 15 20 15 -18 33 -18 34 10 45 c12 51 14 159 4 159
-5 0 -21 -23 -38 -51z"/>
<path d="M8332 8863 c-7 -3 -25 -16 -39 -29 -15 -14 -38 -27 -52 -31 -14 -3
-33 -11 -41 -17 -8 -6 -31 -20 -50 -30 -60 -33 -109 -76 -112 -99 l-3 -22 -44
-21 -44 -21 -8 -21 -8 -22 13 0 c8 0 33 12 55 27 l41 27 0 18 0 19 10 -6 c16
-10 97 43 139 91 21 24 45 44 54 44 8 0 20 7 27 15 7 8 19 15 26 15 8 0 14 6
14 13 0 7 14 18 31 24 l31 12 -7 10 c-7 12 -13 12 -33 4z"/>
<path d="M11117 7763 c-4 -3 -7 -16 -7 -28 0 -27 -29 -55 -57 -55 -11 0 -27
-7 -34 -16 l-13 -16 24 -19 c14 -10 30 -19 36 -19 17 0 44 -35 44 -57 0 -11 6
-25 13 -32 l13 -11 12 12 c7 7 12 19 12 28 1 26 25 49 66 62 l39 13 3 22 3 22
-28 6 c-49 11 -52 13 -73 55 -19 37 -38 49 -53 33z"/>
<path d="M10875 7383 c-3 -21 -11 -56 -17 -78 l-12 -40 -34 -32 c-18 -18 -45
-36 -60 -39 -43 -11 -82 -33 -82 -48 l0 -14 34 -6 c99 -19 166 -89 166 -173 0
-36 15 -73 29 -73 11 0 41 80 41 109 0 57 76 120 163 135 l38 7 6 16 c8 19 -6
27 -73 42 l-55 13 -34 34 c-19 19 -37 47 -41 62 -3 15 -12 41 -20 59 -8 17
-14 38 -14 47 0 9 -7 16 -15 16 l-14 0 -6 -37z"/>
<path d="M7086 7178 c-9 -12 -16 -30 -16 -40 0 -21 -31 -51 -81 -77 -19 -10
-35 -26 -37 -34 l-3 -16 28 -6 c15 -4 39 -12 53 -20 l25 -13 15 -39 c20 -51
29 -63 44 -63 l14 0 11 44 11 45 29 20 c16 12 33 21 38 21 5 0 18 6 28 14 l19
13 -45 29 c-52 34 -70 57 -84 103 -13 43 -28 49 -49 19z"/>
<path d="M9240 6900 c-8 -5 -35 -10 -60 -10 -25 0 -83 -7 -130 -16 -47 -8
-133 -19 -192 -23 l-108 -9 -46 10 -46 10 -54 -7 -55 -7 6 -18 6 -18 -22 -42
-22 -41 12 -12 c6 -6 11 -19 11 -29 l0 -18 27 -6 c14 -4 153 -4 307 -1 l281 5
30 13 c17 6 77 13 134 15 l104 3 8 12 c16 27 -23 39 -141 41 -93 1 -93 6 -12
83 37 36 40 50 13 65 -24 12 -32 12 -51 0z"/>
<path d="M10333 6649 l-92 -8 -33 -17 c-18 -10 -64 -23 -103 -30 l-70 -13 -85
5 -85 5 -14 -9 -14 -10 12 -32 c6 -18 11 -52 11 -76 l0 -43 -18 -10 -18 -10
-130 17 -129 16 -837 1 c-461 1 -841 5 -845 9 -5 4 -8 40 -8 80 l0 71 -55 6
c-30 3 -69 13 -87 23 l-32 16 -103 6 -103 7 -31 -26 -31 -26 -13 -45 c-7 -25
-9 -57 -6 -71 9 -34 74 -105 96 -105 24 0 38 -19 42 -60 l3 -35 70 -5 70 -5
-2 -35 c-4 -91 -2 -293 3 -302 3 -5 3 -21 -1 -36 l-7 -27 -8 20 c-5 11 -9 70
-9 132 -1 61 -5 123 -10 136 l-10 24 -25 5 c-14 3 -30 0 -35 -5 l-11 -11 1
-121 c0 -66 4 -169 9 -230 5 -60 14 -176 19 -257 6 -81 14 -155 19 -165 6 -10
15 -47 20 -83 24 -144 31 -180 40 -197 5 -10 12 -36 16 -58 4 -22 11 -53 16
-70 34 -120 45 -155 61 -190 9 -22 24 -62 33 -90 22 -73 40 -121 51 -136 6 -8
18 -32 29 -54 10 -22 22 -47 27 -55 5 -8 13 -25 19 -37 8 -19 32 -61 95 -164
6 -9 29 -41 53 -70 23 -30 51 -65 62 -79 31 -39 90 -101 150 -155 100 -90 143
-122 223 -165 l52 -28 -2 -26 c-1 -14 -11 -38 -23 -54 l-21 -28 3 -55 3 -54
34 -20 c19 -11 50 -35 69 -53 l34 -32 -7 -77 c-4 -42 -13 -94 -21 -116 -8 -22
-14 -51 -14 -66 0 -28 -28 -114 -45 -141 -5 -8 -26 -45 -45 -82 -47 -90 -114
-168 -239 -279 l-63 -56 -39 -12 -40 -12 -9 -23 -8 -23 -32 -7 c-53 -10 -100
-37 -115 -66 l-14 -27 11 -36 11 -37 -16 -18 c-10 -10 -17 -33 -17 -51 l0 -32
123 5 c67 3 410 8 762 11 352 4 669 10 705 15 l65 9 185 -18 c102 -10 188 -17
193 -14 11 7 -4 175 -20 205 -17 35 -71 50 -119 34 l-21 -7 -7 31 -6 31 -30
17 c-57 32 -165 113 -199 150 -75 82 -150 184 -175 236 -14 30 -31 58 -36 61
-6 3 -10 15 -10 27 0 11 -6 34 -14 51 -17 41 -33 119 -48 230 l-11 88 24 26
c13 14 43 34 65 43 l42 18 7 41 c7 44 3 65 -27 130 l-21 44 10 16 c5 9 32 27
59 41 27 14 67 36 89 49 57 35 270 245 316 312 21 31 44 63 51 70 8 8 34 47
58 87 25 40 53 85 62 100 10 15 20 34 24 42 31 79 39 97 51 111 7 8 13 23 13
32 0 9 4 18 9 21 4 3 18 34 31 68 12 35 26 71 30 80 5 9 18 45 30 80 11 35 25
78 30 95 6 18 15 54 20 80 5 27 13 66 19 88 6 22 17 76 26 120 9 44 21 94 26
110 6 17 14 87 19 157 4 69 11 131 14 136 8 13 34 369 41 561 6 163 7 171 32
171 9 0 35 16 59 35 l43 36 12 39 12 39 -17 43 c-30 78 -74 92 -233 77z
m-1743 -299 l15 -10 -15 -10 -15 -11 -120 5 c-66 3 -121 5 -122 6 -2 0 -3 4
-3 10 0 8 51 13 190 18 30 1 62 -3 70 -8z m547 -59 c315 0 579 2 588 5 8 4 22
1 30 -6 l14 -12 -4 -386 -3 -387 -12 -54 c-7 -30 -10 -72 -7 -93 l5 -40 -18
-18 -19 -19 2 -69 2 -69 -14 -17 c-14 -17 -18 -37 -40 -196 -12 -86 -39 -207
-52 -232 -9 -18 -36 -99 -60 -178 -7 -25 -35 -88 -61 -140 -26 -52 -48 -100
-48 -108 0 -17 -53 -97 -169 -255 l-64 -88 -41 -28 c-23 -16 -56 -36 -75 -45
l-33 -18 -35 7 -34 6 -35 49 -35 48 -30 11 c-17 6 -38 20 -48 32 l-18 22 -15
-5 -15 -6 -7 -41 c-9 -58 -16 -57 -85 11 l-61 61 -27 58 -27 59 -18 0 -18 0 0
34 0 35 -33 25 c-18 14 -44 27 -58 28 l-24 3 4 -15 c2 -8 6 -32 8 -52 l6 -38
-10 0 c-15 0 -151 135 -163 161 -5 13 -15 31 -20 39 -6 8 -19 35 -31 60 -11
25 -40 83 -64 130 -25 47 -45 97 -45 112 0 15 -4 30 -10 33 -5 3 -10 16 -10
28 0 12 -6 33 -13 47 -22 42 -54 151 -66 225 -7 39 -19 106 -28 150 -49 257
-98 916 -84 1124 l1 14 188 -5 c103 -3 203 -2 222 1 19 3 82 5 140 5 58 -1
362 -2 677 -3z m967 -39 c14 -8 -25 -32 -53 -32 -31 0 -45 9 -54 33 l-7 19 52
-7 c29 -4 57 -10 62 -13z m114 6 l12 -12 -11 -13 c-14 -16 -43 -17 -70 -2
l-21 11 19 13 c22 18 55 19 71 3z m48 -425 c-3 -21 -8 -69 -11 -108 -4 -38 -9
-78 -12 -89 l-5 -18 -8 8 -8 9 8 106 c8 108 13 129 31 129 l11 0 -6 -37z
m-159 -524 l13 -54 -5 -70 c-3 -38 -6 -79 -6 -90 -1 -70 -12 -184 -19 -195
l-8 -14 -17 14 -16 13 -16 -15 c-8 -9 -21 -40 -28 -70 l-12 -53 -17 37 -18 38
12 100 c6 55 8 105 5 110 -3 5 10 38 30 72 l36 61 -4 18 -5 18 14 5 14 5 0 50
c0 97 27 108 47 20z m-942 -1611 c2 -7 1 -38 -3 -68 l-7 -55 -30 -15 -30 -15
-189 3 -190 3 -18 10 -19 10 7 62 c4 34 12 65 18 69 6 4 111 8 234 8 l223 0 4
-12z m-231 -353 c9 -13 16 -31 16 -39 0 -7 7 -17 15 -20 l16 -6 5 14 c9 23 35
28 61 11 l25 -16 -7 -42 c-4 -23 -12 -49 -18 -59 l-11 -17 17 -19 c20 -22 22
-39 5 -45 -7 -2 -13 -16 -13 -32 0 -30 -12 -40 -33 -26 l-14 8 -2 94 c-1 52
-5 100 -10 107 -13 21 -25 3 -24 -36 0 -20 -4 -95 -10 -166 -13 -171 -1 -218
37 -144 l18 37 -4 24 -5 23 17 14 16 13 22 -11 c12 -6 33 -12 47 -14 l25 -3 3
-25 c2 -14 10 -32 18 -41 8 -9 20 -33 25 -53 6 -20 20 -53 32 -74 31 -51 49
-102 51 -137 l1 -29 -40 -8 c-42 -7 -299 -11 -572 -9 l-163 1 0 13 c0 8 12 24
26 38 38 35 107 135 137 199 15 30 30 62 35 70 24 40 43 92 61 165 32 127 55
182 94 225 l36 40 24 0 25 0 16 -25z m742 -795 c71 -11 136 -20 144 -21 32 -3
-101 -17 -230 -24 -74 -3 -142 -9 -150 -12 -8 -3 -109 -5 -225 -4 l-210 2 -19
-14 -20 -14 40 -13 c54 -17 59 -21 40 -32 -9 -5 -13 -14 -10 -20 4 -6 0 -14
-7 -19 l-14 -9 -352 0 -352 0 -7 11 c-3 6 -6 33 -6 60 l0 48 -15 12 c-8 7 -31
15 -51 19 l-37 6 65 13 65 13 340 5 c187 3 342 7 344 9 2 2 124 4 271 4 l267
0 129 -20z m-242 -116 c17 -45 2 -68 -38 -58 l-24 6 12 21 c27 52 39 59 50 31z"/>
<path d="M8190 6001 c0 -163 11 -184 35 -67 l17 83 -10 19 c-5 10 -13 38 -17
62 -4 23 -11 42 -16 42 l-9 0 0 -139z"/>
<path d="M9545 5880 c-11 -5 -32 -9 -47 -9 l-28 -1 0 -16 c0 -9 6 -22 14 -28
7 -6 16 -30 20 -53 l6 -42 -16 -15 -15 -16 20 -28 20 -28 -10 -15 c-5 -7 -9
-56 -9 -107 l0 -93 -15 -5 c-20 -8 -55 2 -84 25 l-24 18 -5 75 -4 74 41 36
c47 40 43 52 -13 37 l-37 -10 -31 -33 -31 -33 -12 -47 -12 -46 11 -44 c13 -51
41 -86 68 -86 10 0 27 -5 37 -12 l19 -11 55 17 c30 9 61 16 69 15 7 -1 39 -1
71 0 l57 1 0 10 c0 6 -15 10 -34 10 -19 0 -37 4 -41 9 -8 14 -8 336 0 404 l7
57 -13 -1 c-8 0 -23 -4 -34 -9z"/>
<path d="M8486 5831 c-3 -5 -18 -12 -33 -16 -41 -10 -129 -81 -164 -133 l-30
-45 3 -21 3 -21 25 -8 26 -9 56 55 56 55 47 7 47 8 38 -12 39 -11 22 -28 21
-27 -6 -58 -6 -58 -17 -24 c-24 -31 -110 -87 -146 -94 -35 -7 -53 -31 -43 -56
l6 -18 44 6 44 6 49 -16 c53 -17 88 -44 109 -85 l14 -27 0 -76 0 -76 -19 -37
c-10 -20 -28 -46 -40 -56 l-21 -19 -50 -5 -50 -5 -55 28 c-30 16 -55 31 -55
34 0 4 -20 17 -45 31 l-44 24 -28 -20 c-16 -12 -32 -33 -37 -48 l-10 -26 10
-27 c14 -40 62 -68 140 -82 l69 -12 55 11 c62 12 165 46 183 60 7 5 32 24 56
42 79 59 134 150 148 246 l5 33 -22 52 c-28 67 -62 103 -127 134 -46 21 -69
43 -45 43 18 0 92 78 107 112 42 102 -18 218 -135 261 l-46 17 -71 0 c-40 0
-74 -4 -77 -9z"/>
<path d="M9084 5710 c-5 -5 -27 -13 -49 -18 l-40 -8 -3 -20 c-2 -12 4 -27 13
-34 l15 -12 0 -97 0 -97 -15 -20 c-8 -10 -15 -24 -15 -29 l0 -11 86 2 c102 2
106 5 66 44 l-32 30 0 71 0 70 26 25 25 26 33 -6 33 -6 10 12 c5 7 13 21 16
30 l6 17 -18 23 -19 22 -36 -19 -36 -19 -10 -29 -9 -29 -12 8 -11 7 5 32 5 33
-13 5 c-7 3 -17 1 -21 -3z"/>
<path d="M8230 5243 c1 -15 7 -41 14 -58 l14 -30 6 16 c4 9 6 34 4 55 l-3 39
-17 3 -18 3 0 -28z"/>
<path d="M8350 4544 c0 -4 5 -24 12 -46 l11 -39 11 4 c6 2 12 14 14 26 l4 23
-18 19 c-17 19 -34 25 -34 13z"/>
<path d="M9647 6563 c-4 -3 -125 -6 -269 -5 -145 1 -269 -3 -277 -7 l-13 -9
118 -5 c161 -7 554 -8 576 -1 10 3 18 12 18 20 l0 14 -73 0 c-41 0 -77 -3 -80
-7z"/>
<path d="M7746 3888 c-9 -17 -16 -37 -16 -43 0 -7 -9 -24 -21 -39 l-20 -26
-41 -6 -40 -7 -6 -15 -5 -15 22 -19 c13 -10 34 -18 46 -18 l23 0 20 -32 c11
-18 25 -50 32 -70 6 -21 16 -41 22 -44 l11 -7 14 18 c7 11 13 30 13 44 0 14 9
40 19 57 l19 31 35 7 c36 7 73 38 63 54 -3 5 -27 13 -52 17 l-47 7 -18 21
c-10 12 -21 43 -24 70 l-7 47 -13 0 c-8 0 -21 -14 -29 -32z"/>
<path d="M10066 3559 c-3 -34 -14 -76 -24 -93 l-18 -31 -45 -22 c-24 -12 -59
-22 -77 -22 -18 -1 -42 -6 -53 -12 l-20 -10 10 -13 c6 -8 37 -21 69 -30 118
-35 135 -51 156 -156 l12 -55 19 0 20 0 13 45 c21 71 33 99 54 125 l19 25 24
0 c13 0 49 9 80 21 l56 21 -4 11 c-2 7 -17 16 -33 20 -143 41 -156 49 -172
105 -6 20 -17 57 -24 82 l-13 45 -21 3 -21 3 -7 -62z"/>
<path d="M10045 2285 c-33 -7 -139 -18 -235 -24 -96 -6 -192 -14 -214 -17
l-39 -6 7 -78 6 -77 -14 -12 -15 -12 -198 10 -198 11 -185 -10 c-186 -9 -824
-5 -842 6 l-9 6 3 81 3 82 -60 12 c-139 30 -160 33 -202 33 -49 0 -78 -12
-105 -44 l-17 -21 3 -113 c1 -62 -1 -115 -6 -118 -5 -3 -50 0 -100 6 l-92 11
-24 -25 -25 -24 2 -547 c1 -300 5 -553 8 -561 l5 -15 77 8 c42 4 405 7 806 7
779 -2 1252 -2 1695 0 l275 1 38 -17 c54 -24 46 -35 -35 -48 l-73 -13 -485 4
c-267 1 -838 -1 -1270 -5 l-785 -8 -110 10 -110 10 -63 32 -63 31 -29 -6 c-58
-13 -76 -54 -81 -188 l-4 -98 1704 0 c937 0 1705 2 1707 4 2 1 0 51 -3 110
l-6 106 -27 33 -28 33 -48 -1 c-27 -1 -58 -4 -69 -5 l-20 -4 0 564 0 563 -25
28 -25 27 -89 -10 -88 -9 -12 12 -11 11 2 102 2 102 -17 20 c-47 56 -79 63
-187 40z m101 -154 c31 -48 26 -61 -27 -61 l-39 0 -1 13 c-4 39 14 87 31 87 5
0 21 -18 36 -39z m-446 -121 c8 0 43 2 76 6 l62 6 81 -11 81 -11 26 -16 25
-17 -13 -9 c-7 -4 -87 -8 -178 -9 -1114 -6 -2014 -7 -2052 -3 l-48 6 0 13 c0
27 53 29 853 36 450 3 821 10 825 14 6 5 57 5 262 -5z m-560 -194 l1035 -1 8
-75 c4 -41 6 -216 5 -389 l-3 -314 -250 2 c-137 1 -340 6 -450 11 -237 11
-1386 12 -1565 1 -69 -4 -126 -7 -128 -5 -6 4 -13 718 -7 745 l6 28 72 4 c40
2 110 1 157 -2 47 -2 551 -5 1120 -5z"/>
<path d="M7859 1749 l-9 -5 9 -55 c6 -30 12 -87 14 -127 6 -104 29 -115 41
-20 8 61 20 78 51 78 l23 0 6 16 c3 9 6 30 6 49 l0 33 23 6 c12 3 35 6 52 6
l29 0 -9 9 c-11 10 -222 19 -236 10z"/>
<path d="M8437 2223 c-6 -10 9 -49 21 -57 12 -7 27 11 36 42 l7 22 -30 0 c-16
0 -32 -3 -34 -7z"/>
<path d="M9042 2223 c-32 -6 -17 -23 21 -23 l32 0 -14 -9 c-7 -5 -10 -14 -7
-20 l7 -11 61 0 61 0 18 16 17 16 22 -12 21 -11 12 9 c7 4 31 14 55 22 l43 13
-13 9 c-13 8 -294 9 -336 1z"/>
<path d="M6875 679 c-77 -17 -150 -37 -163 -45 l-23 -15 3 -22 3 -21 25 -12
c38 -19 167 -48 326 -75 l71 -12 57 7 56 7 0 14 c0 8 -12 22 -27 32 -51 31
-73 56 -79 90 l-6 33 11 14 12 14 -11 7 c-6 4 -34 8 -63 10 l-52 4 -140 -30z"/>
<path d="M10847 694 c-3 -3 -1 -17 5 -30 l11 -25 -16 -35 c-9 -19 -17 -40 -17
-47 0 -7 -10 -17 -22 -22 -13 -6 -24 -18 -26 -27 l-3 -17 47 -7 47 -7 71 12
c39 7 87 16 106 21 19 4 55 11 80 15 25 3 56 10 70 15 14 5 38 11 53 14 l28 7
11 24 11 25 -19 18 -19 18 -105 18 c-58 10 -121 22 -140 27 -40 10 -164 12
-173 3z"/>
</g>
</svg>
