<svg width="200" height="500" viewBox="0 0 200 500" xmlns="http://www.w3.org/2000/svg">
  <defs>
    <linearGradient id="blackGloss" x1="0%" y1="0%" x2="100%" y2="100%">
      <stop offset="0%" stop-color="#3A3A3A" />
      <stop offset="40%" stop-color="#111111" />
      <stop offset="100%" stop-color="#000000" />
    </linearGradient>
  </defs>

  <g fill="url(#blackGloss)" stroke="#000000" stroke-width="3" stroke-linejoin="round" fill-rule="evenodd">
    
    <path d="M 100 480 C 40 480 50 360 85 340 L 115 340 C 150 360 160 480 100 480 Z" />

    <rect x="85" y="150" width="30" height="195" rx="4" />

    <path d="M 100 160 
             C 100 160 20 110 20 50 C 20 -10 90 -10 100 30 C 110 -10 180 -10 180 50 C 180 110 100 160 100 160 Z
             M 100 135 
             C 100 135 150 95 150 55 C 150 20 115 20 100 45 C 85 20 50 20 50 55 C 50 95 100 135 100 135 Z" />
             
  </g>

  <line x1="100" y1="170" x2="100" y2="320" stroke="#000000" stroke-width="2" stroke-linecap="round" stroke-dasharray="10 5" />
  
  <circle cx="100" cy="180" r="3" fill="#000000" />
  <circle cx="100" cy="310" r="3" fill="#000000" />
</svg>
